<svg xmlns="http://www.w3.org/2000/svg" viewBox="0 0 195.75 40.55"><defs><style>.cls-1{fill:#36a9e1;}.cls-2{fill:#303541;}.cls-3{font-size:36px;fill:#fff;font-family:BebasNeue-Regular, Bebas Neue;}</style></defs><title>ESTIMATORPRO SAAS DARK</title><g id="Layer_2" data-name="Layer 2"><g id="Layer_1-2" data-name="Layer 1"><polygon class="cls-1" points="14.73 24.11 0.08 15.65 0.08 10.53 14.73 18.98 14.73 24.11"/><polygon class="cls-1" points="14.73 31.71 0.08 23.25 0.08 18.12 14.73 26.58 14.73 31.71"/><polygon class="cls-1" points="14.73 39.3 0.08 30.84 0.08 25.72 14.73 34.17 14.73 39.3"/><path class="cls-2" d="M29.3,15.65,14.65,24.11V19l9.52-5.49c2.83-1.64,5.13-.67,5.13,2.16Z"/><path class="cls-2" d="M24.17,26.21l-9.52,5.5V26.58L29.3,18.12h0C29.3,21,27,24.57,24.17,26.21Z"/><polygon class="cls-1" points="29.38 8.46 14.73 16.92 0 8.46 14.73 0 29.38 8.46"/><text class="cls-3" transform="translate(32.38 33.35)">EstimatorPRO</text></g></g></svg>